<?xml version="1.0" encoding="utf-8"?>
<!-- Generator: Adobe Illustrator 16.0.0, SVG Export Plug-In . SVG Version: 6.00 Build 0)  -->
<!DOCTYPE svg PUBLIC "-//W3C//DTD SVG 1.1//EN" "http://www.w3.org/Graphics/SVG/1.1/DTD/svg11.dtd">
<svg version="1.1" xmlns="http://www.w3.org/2000/svg" xmlns:xlink="http://www.w3.org/1999/xlink" x="0px" y="0px" width="500px"
	 height="500px" viewBox="0 0 500 500" enable-background="new 0 0 500 500" xml:space="preserve">
<g id="Layer_2">
</g>
<g id="Layer_3">
</g>
<g id="Layer_5">
</g>
<g id="Layer_6">
</g>
<g id="Layer_4">
</g>
<g id="Layer_7">
</g>
<g id="Layer_8">
</g>
<g id="Layer_9">
</g>
<g id="Layer_10">
	<g>
		<path d="M20.842,472.438c0,0-17.012,2.403-18.227-22.796L3.83,49.578c0,0,1.823-5.4,17.012-12.001c0,0-2.432-8.999,13.365-14.998
			l60.145-21c0,0,381.968-7.2,407.486,15.6l-5.299,26.999l-7.289,29.467c5.709-10.992-0.241-55.721,7.289,3.866
			c0,0,6.076,56.398,6.076,67.798l-2.429,42.942l-3.647,253.588c0,0,3.037,4.202-8.502,12.001l-95.99,40.801
			c0,0-19.445,11.397-82.021,2.397L20.842,472.438z"/>
		<path fill="#FFFFFF" stroke="#000000" stroke-width="7.8508" stroke-miterlimit="10" d="M5.725,32.525l15.813-6.305
			c0,0-4.257-6.306,12.164-10.36l57.17-14.864c0,0,210.435-2.702,368.422,4.504l23.11,3.604l-7.157,1.802l-67.509,13.962
			c0,0-38.923,15.314-32.234,25.223l-100.353,4.054h99.745l13.38-4.954c0,0,48.048-18.917,62.644-18.468l10.949-6.305l8.512,2.905
			c0,0,9.124-2.905,12.771,4.302l6.691-4.302l-4.866,12.859c0,0-17.637,13.962-23.719,11.261c0,0,20.679-4.055,26.153-8.559
			c0,0,13.987-16.665,11.555,92.785l-7.905,330.149L391.318,500.5c0,0-383.161-10.811-385.594-20.72c0,0-3.649-3.604-3.041-14.862
			L5.725,32.525z"/>
		<path fill="#2B3F7B" d="M7.353,314.539c0,0,17.854,13.972,129.017,93.813l-29.981,25.947c0,0-96.425-49.899-99.078-72.521
			L7.353,314.539z"/>
		<path fill="#2B3F7B" d="M5.941,391.052c1.08,5.954,22.542,18.331,89.646,57.552L53.48,483.201l-42.444-3.992
			c0,0-7.448,3.992-5.095-27.279V391.052z"/>
		<path fill="#2B3F7B" d="M83.461,484.184c0,0,224.347-180.29,304.856-236.526v57.884c0,0-200.599,173.976-229.401,184.631
			L83.461,484.184z"/>
		<path fill="#2B3F7B" d="M201.025,490.241c0,0,164.049-130.792,187.292-153.044l0.653,159.017c0,0-3.349,2.993-45.119-0.334
			L201.025,490.241z"/>
		<path fill="#2B3F7B" d="M393.295,427.7v69.806l94.395-33.878l1.538-85.162C489.228,378.466,405.422,423.044,393.295,427.7z"/>
		<path stroke="#000000" stroke-width="5.0213" stroke-miterlimit="10" d="M394.717,79.01c0,0,1.348,98.802,0,112.109
			c-1.887,18.639-1.384,18.657-3.368,306.055C391.349,497.174,386.633,98.97,394.717,79.01z"/>
		
			<line fill="none" stroke="#020202" stroke-width="3.0128" stroke-miterlimit="10" x1="393.295" y1="240.77" x2="494.597" y2="189.123"/>
		
			<line fill="none" stroke="#020202" stroke-width="3.0128" stroke-miterlimit="10" x1="393.706" y1="246.757" x2="495.008" y2="195.111"/>
		
			<line fill="none" stroke="#020202" stroke-width="3.0128" stroke-miterlimit="10" x1="393.706" y1="253.743" x2="495.008" y2="202.097"/>
		
			<line fill="none" stroke="#020202" stroke-width="3.0128" stroke-miterlimit="10" x1="394.118" y1="259.731" x2="495.42" y2="208.085"/>
		
			<line fill="none" stroke="#020202" stroke-width="3.0128" stroke-miterlimit="10" x1="393.706" y1="265.72" x2="495.008" y2="214.073"/>
		
			<line fill="none" stroke="#020202" stroke-width="3.0128" stroke-miterlimit="10" x1="394.118" y1="271.708" x2="495.42" y2="220.061"/>
		
			<line fill="none" stroke="#020202" stroke-width="3.0128" stroke-miterlimit="10" x1="393.107" y1="278.693" x2="494.409" y2="227.047"/>
		
			<line fill="none" stroke="#020202" stroke-width="3.0128" stroke-miterlimit="10" x1="393.519" y1="284.682" x2="494.82" y2="233.035"/>
		
			<line fill="none" stroke="#020202" stroke-width="3.0128" stroke-miterlimit="10" x1="392.696" y1="284.682" x2="493.998" y2="233.035"/>
		
			<line fill="none" stroke="#020202" stroke-width="3.0128" stroke-miterlimit="10" x1="393.107" y1="290.67" x2="494.409" y2="239.023"/>
		
			<line fill="none" stroke="#020202" stroke-width="3.0128" stroke-miterlimit="10" x1="392.097" y1="297.655" x2="493.398" y2="246.009"/>
		
			<line fill="none" stroke="#020202" stroke-width="3.0128" stroke-miterlimit="10" x1="392.508" y1="303.644" x2="493.811" y2="251.997"/>
		
			<line fill="none" stroke="#020202" stroke-width="3.0128" stroke-miterlimit="10" x1="393.107" y1="309.632" x2="494.409" y2="257.985"/>
		
			<line fill="none" stroke="#020202" stroke-width="3.0128" stroke-miterlimit="10" x1="392.508" y1="315.62" x2="493.811" y2="263.973"/>
		
			<line fill="none" stroke="#020202" stroke-width="3.0128" stroke-miterlimit="10" x1="392.508" y1="322.605" x2="493.811" y2="270.959"/>
		
			<line fill="none" stroke="#020202" stroke-width="3.0128" stroke-miterlimit="10" x1="392.92" y1="328.594" x2="494.222" y2="276.947"/>
		
			<line fill="none" stroke="#020202" stroke-width="3.0128" stroke-miterlimit="10" x1="391.273" y1="336.578" x2="492.575" y2="284.931"/>
		
			<line fill="none" stroke="#020202" stroke-width="3.0128" stroke-miterlimit="10" x1="391.686" y1="342.565" x2="492.987" y2="290.919"/>
		
			<line fill="none" stroke="#020202" stroke-width="3.0128" stroke-miterlimit="10" x1="391.686" y1="349.552" x2="492.987" y2="297.905"/>
		
			<line fill="none" stroke="#020202" stroke-width="3.0128" stroke-miterlimit="10" x1="392.097" y1="355.54" x2="493.398" y2="303.894"/>
		
			<line fill="none" stroke="#020202" stroke-width="3.0128" stroke-miterlimit="10" x1="391.686" y1="361.528" x2="492.987" y2="309.881"/>
		
			<line fill="none" stroke="#020202" stroke-width="3.0128" stroke-miterlimit="10" x1="392.097" y1="367.516" x2="493.398" y2="315.869"/>
		
			<line fill="none" stroke="#020202" stroke-width="3.0128" stroke-miterlimit="10" x1="392.097" y1="374.502" x2="493.398" y2="322.855"/>
		
			<line fill="none" stroke="#020202" stroke-width="3.0128" stroke-miterlimit="10" x1="392.508" y1="380.49" x2="493.811" y2="328.844"/>
		
			<line fill="none" stroke="#020202" stroke-width="3.0128" stroke-miterlimit="10" x1="390.675" y1="380.49" x2="491.977" y2="328.844"/>
		
			<line fill="none" stroke="#020202" stroke-width="3.0128" stroke-miterlimit="10" x1="392.097" y1="386.478" x2="493.398" y2="334.831"/>
		
			<line fill="none" stroke="#020202" stroke-width="3.0128" stroke-miterlimit="10" x1="392.097" y1="393.464" x2="493.398" y2="341.817"/>
		
			<line fill="none" stroke="#020202" stroke-width="3.0128" stroke-miterlimit="10" x1="391.498" y1="399.452" x2="492.8" y2="347.806"/>
		
			<line fill="none" stroke="#020202" stroke-width="3.0128" stroke-miterlimit="10" x1="392.097" y1="405.44" x2="493.398" y2="353.793"/>
		
			<line fill="none" stroke="#020202" stroke-width="3.0128" stroke-miterlimit="10" x1="391.498" y1="411.428" x2="492.8" y2="359.781"/>
		
			<line fill="none" stroke="#020202" stroke-width="3.0128" stroke-miterlimit="10" x1="391.498" y1="418.414" x2="492.8" y2="366.768"/>
		
			<line fill="none" stroke="#020202" stroke-width="3.0128" stroke-miterlimit="10" x1="390.898" y1="424.402" x2="492.2" y2="372.756"/>
		
			<line fill="none" stroke="#020202" stroke-width="3.0128" stroke-miterlimit="10" x1="391.273" y1="178.893" x2="492.575" y2="127.247"/>
		
			<line fill="none" stroke="#020202" stroke-width="3.0128" stroke-miterlimit="10" x1="391.686" y1="184.881" x2="492.987" y2="133.234"/>
		
			<line fill="none" stroke="#020202" stroke-width="3.0128" stroke-miterlimit="10" x1="391.686" y1="191.867" x2="492.987" y2="140.221"/>
		
			<line fill="none" stroke="#020202" stroke-width="3.0128" stroke-miterlimit="10" x1="392.097" y1="197.855" x2="493.398" y2="146.208"/>
		
			<line fill="none" stroke="#020202" stroke-width="3.0128" stroke-miterlimit="10" x1="391.686" y1="203.843" x2="492.987" y2="152.197"/>
		
			<line fill="none" stroke="#020202" stroke-width="3.0128" stroke-miterlimit="10" x1="392.097" y1="209.832" x2="493.398" y2="158.185"/>
		
			<line fill="none" stroke="#020202" stroke-width="3.0128" stroke-miterlimit="10" x1="391.086" y1="216.817" x2="492.388" y2="165.171"/>
		
			<line fill="none" stroke="#020202" stroke-width="3.0128" stroke-miterlimit="10" x1="391.498" y1="222.805" x2="492.8" y2="171.159"/>
		
			<line fill="none" stroke="#020202" stroke-width="3.0128" stroke-miterlimit="10" x1="390.675" y1="222.805" x2="491.977" y2="171.159"/>
		
			<line fill="none" stroke="#020202" stroke-width="3.0128" stroke-miterlimit="10" x1="391.086" y1="228.793" x2="492.388" y2="177.146"/>
		
			<line fill="none" stroke="#020202" stroke-width="3.0128" stroke-miterlimit="10" x1="390.076" y1="235.779" x2="491.378" y2="184.133"/>
		
			<line fill="none" stroke="#020202" stroke-width="3.0128" stroke-miterlimit="10" x1="393.649" y1="121.009" x2="494.951" y2="69.362"/>
		
			<line fill="none" stroke="#020202" stroke-width="3.0128" stroke-miterlimit="10" x1="394.061" y1="126.997" x2="495.362" y2="75.351"/>
		
			<line fill="none" stroke="#020202" stroke-width="3.0128" stroke-miterlimit="10" x1="394.061" y1="133.983" x2="495.362" y2="82.336"/>
		
			<line fill="none" stroke="#020202" stroke-width="3.0128" stroke-miterlimit="10" x1="394.473" y1="139.971" x2="495.774" y2="88.324"/>
		
			<line fill="none" stroke="#020202" stroke-width="3.0128" stroke-miterlimit="10" x1="394.061" y1="145.959" x2="495.362" y2="94.313"/>
		
			<line fill="none" stroke="#020202" stroke-width="3.0128" stroke-miterlimit="10" x1="394.473" y1="151.947" x2="495.774" y2="100.3"/>
		
			<line fill="none" stroke="#020202" stroke-width="3.0128" stroke-miterlimit="10" x1="393.462" y1="158.933" x2="494.764" y2="107.287"/>
		
			<line fill="none" stroke="#020202" stroke-width="3.0128" stroke-miterlimit="10" x1="393.873" y1="164.921" x2="495.175" y2="113.274"/>
		
			<line fill="none" stroke="#020202" stroke-width="3.0128" stroke-miterlimit="10" x1="393.05" y1="164.921" x2="494.352" y2="113.274"/>
		
			<line fill="none" stroke="#020202" stroke-width="3.0128" stroke-miterlimit="10" x1="393.462" y1="170.909" x2="494.764" y2="119.263"/>
		
			<line fill="none" stroke="#020202" stroke-width="3.0128" stroke-miterlimit="10" x1="394.66" y1="101.049" x2="495.962" y2="49.402"/>
		
			<line fill="none" stroke="#020202" stroke-width="3.0128" stroke-miterlimit="10" x1="395.071" y1="107.037" x2="496.373" y2="55.39"/>
		
			<line fill="none" stroke="#020202" stroke-width="3.0128" stroke-miterlimit="10" x1="395.071" y1="114.023" x2="496.373" y2="62.376"/>
		
			<line fill="none" stroke="#020202" stroke-width="3.0128" stroke-miterlimit="10" x1="393.462" y1="95.061" x2="494.764" y2="43.414"/>
		<path fill="none" stroke="#020202" stroke-width="5.0213" stroke-miterlimit="10" d="M394.061,125.999"/>
		<path fill="none" stroke="#020202" stroke-width="5.0213" stroke-miterlimit="10" d="M108.986,114.148"/>
		<path fill="none" stroke="#020202" stroke-width="5.0213" stroke-miterlimit="10" d="M393.706,115.021"/>
		<path fill="none" stroke="#020202" stroke-width="5.0213" stroke-miterlimit="10" d="M108.631,94.188"/>
		<path fill="none" stroke="#020202" stroke-width="3.0128" stroke-miterlimit="10" d="M228.983,55.39"/>
		<g>
			<path fill="#DA3A1E" d="M67.25,187.276c-0.404-1.53-0.708-3.059-0.91-4.591c-0.202-1.53-0.371-3.06-0.505-4.591
				c-0.27-3.06-0.27-6.071,0-9.032c0.269-2.96,0.708-5.938,1.314-8.933c0.336-1.462,0.672-2.894,1.01-4.291
				c0.336-1.397,0.774-2.794,1.313-4.192c0.405-1.397,0.91-2.794,1.516-4.191c0.471-1.263,1.044-2.595,1.718-3.992
				c0.606-1.331,1.246-2.645,1.92-3.942c0.672-1.297,1.38-2.578,2.122-3.843c0.741-1.263,1.516-2.51,2.324-3.742
				c0.809-1.23,1.684-2.411,2.627-3.543c1.819-2.527,3.739-4.79,5.761-6.786c1.01-0.998,2.087-1.979,3.233-2.944
				c1.145-0.964,2.325-1.879,3.537-2.745c1.213-0.864,2.458-1.662,3.739-2.395c1.279-0.731,2.592-1.397,3.941-1.996
				c0.673-0.332,1.33-0.631,1.971-0.898c0.639-0.265,1.329-0.565,2.071-0.898c0.672-0.265,1.347-0.499,2.021-0.698
				c0.673-0.2,1.38-0.399,2.123-0.599c1.415-0.399,2.829-0.749,4.245-1.048c1.415-0.299,2.829-0.515,4.244-0.649
				c1.415-0.199,2.863-0.299,4.346-0.299c1.415-0.065,2.829-0.065,4.244,0c0.74,0.067,1.481,0.117,2.223,0.15
				c0.741,0.034,1.481,0.117,2.223,0.25c0.742,0.134,1.466,0.25,2.172,0.349c0.709,0.1,1.431,0.25,2.173,0.449
				c1.549,0.399,3.032,0.932,4.447,1.597c0.74,0.333,1.447,0.699,2.122,1.098c0.673,0.399,1.346,0.866,2.021,1.397
				c1.279,0.998,2.459,2.229,3.537,3.692c0.539,0.733,1.01,1.481,1.415,2.246c0.405,0.766,0.774,1.547,1.111,2.346
				c0.539,1.597,0.875,3.36,1.011,5.289c0,0.933-0.036,1.831-0.101,2.695c-0.069,0.865-0.203,1.731-0.404,2.595
				c-0.338,1.864-0.876,3.527-1.617,4.99c-0.742,1.731-1.584,3.228-2.526,4.491c-0.945,1.332-2.005,2.595-3.184,3.792
				c-1.181,1.198-2.41,2.295-3.689,3.293c-2.493,1.931-5.221,3.561-8.186,4.891c-0.742,0.333-1.465,0.633-2.172,0.898
				c-0.708,0.267-1.433,0.565-2.173,0.898c-0.337,0.134-0.707,0.25-1.111,0.35c-0.404,0.1-0.775,0.217-1.111,0.349
				c-0.203,0.067-0.389,0.117-0.556,0.15c-0.169,0.034-0.354,0.084-0.556,0.149l-0.606,0.1l-0.505,0.2
				c-1.753,0.399-3.386,0.15-4.901-0.749s-2.476-2.211-2.88-3.942c-0.472-1.662-0.271-3.227,0.606-4.691
				c0.875-1.462,2.123-2.46,3.739-2.994h0.102l0.909-0.299l0.91-0.2c0.268-0.132,0.538-0.232,0.809-0.299
				c0.269-0.066,0.571-0.166,0.909-0.3l3.335-1.197c0.538-0.265,1.062-0.515,1.566-0.749c0.505-0.232,1.026-0.482,1.566-0.749
				c0.538-0.265,1.043-0.532,1.516-0.799c0.471-0.265,0.976-0.564,1.517-0.898c0.941-0.599,1.818-1.248,2.627-1.946
				c0.809-0.699,1.549-1.447,2.223-2.246c1.348-1.53,2.392-3.227,3.134-5.09c0.335-0.931,0.537-1.862,0.606-2.795
				c0.134-0.931,0.134-1.861,0-2.794c-0.136-1.063-0.337-2.029-0.606-2.894c-0.271-0.998-0.742-1.962-1.415-2.895
				c-0.675-0.998-1.382-1.862-2.122-2.595c-0.474-0.465-0.945-0.864-1.415-1.198c-0.472-0.332-0.977-0.664-1.516-0.998
				c-1.146-0.664-2.325-1.18-3.537-1.547c-1.213-0.365-2.494-0.614-3.84-0.748c-1.349-0.066-2.663-0.066-3.941,0
				c-0.674,0.066-1.331,0.134-1.97,0.199c-0.641,0.067-1.298,0.167-1.971,0.299c-2.627,0.533-5.087,1.332-7.377,2.396
				c-0.606,0.333-1.197,0.666-1.769,0.998c-0.573,0.333-1.129,0.666-1.667,0.998c-1.147,0.733-2.19,1.464-3.133,2.196
				c-1.011,0.866-1.971,1.731-2.88,2.595c-0.91,0.865-1.803,1.764-2.678,2.695c-1.753,1.931-3.37,3.927-4.851,5.988
				c-0.742,0.998-1.449,2.013-2.122,3.044c-0.674,1.033-1.349,2.113-2.021,3.244c-1.349,2.196-2.526,4.458-3.537,6.787
				c-1.011,2.33-1.92,4.658-2.729,6.986c-0.203,0.599-0.404,1.197-0.606,1.796c-0.202,0.599-0.371,1.232-0.505,1.896
				c-0.202,0.599-0.389,1.198-0.556,1.797c-0.169,0.599-0.321,1.197-0.455,1.796c-0.338,1.265-0.606,2.495-0.808,3.693
				c-0.202,1.197-0.404,2.429-0.606,3.692c-0.202,1.198-0.354,2.413-0.455,3.643c-0.101,1.232-0.186,2.445-0.252,3.643
				c-0.202,2.462-0.202,4.89,0,7.285c0.134,2.395,0.438,4.691,0.91,6.886c0.269,1.132,0.556,2.23,0.859,3.294
				c0.303,1.064,0.657,2.096,1.061,3.094c0.809,2.063,1.819,3.926,3.032,5.588c1.145,1.664,2.628,3.161,4.447,4.491
				c0.471,0.333,0.942,0.633,1.415,0.898c0.471,0.267,0.976,0.499,1.516,0.698c0.539,0.267,1.077,0.499,1.617,0.699
				c0.538,0.199,1.112,0.399,1.718,0.599c0.538,0.134,1.111,0.25,1.718,0.349c0.606,0.1,1.213,0.217,1.819,0.35
				c0.134,0,0.286,0.017,0.454,0.05c0.167,0.034,0.319,0.05,0.455,0.05l0.505,0.1h0.505c0.336,0.067,0.657,0.1,0.959,0.1
				c0.304,0,0.623,0,0.96,0c1.347,0.134,2.661,0.184,3.941,0.149c1.279-0.033,2.593-0.115,3.941-0.25
				c2.56-0.265,5.119-0.764,7.68-1.497c2.56-0.731,5.019-1.68,7.377-2.844c2.357-1.163,4.614-2.511,6.771-4.042
				c2.223-1.663,4.177-3.426,5.86-5.29c0.472-0.532,0.926-1.048,1.364-1.547c0.438-0.499,0.825-1.013,1.163-1.547
				c0.067-0.133,0.235-0.365,0.505-0.698c0.269-0.333,0.557-0.682,0.858-1.048c0.304-0.365,0.59-0.731,0.861-1.098
				c0.268-0.365,0.436-0.614,0.505-0.749c0.201-0.2,0.369-0.465,0.505-0.798c0.065-0.065,0.117-0.133,0.15-0.199
				c0.033-0.066,0.084-0.133,0.152-0.2l0.101-0.2c0-0.065,0.034-0.132,0.103-0.199c0.201-0.399,0.521-0.682,0.959-0.848
				c0.438-0.166,0.858-0.15,1.263,0.049c0.404,0.2,0.691,0.534,0.858,0.998c0.168,0.466,0.152,0.899-0.049,1.298
				c-0.069,0.067-0.103,0.117-0.103,0.149c0,0.034-0.034,0.084-0.101,0.15l-0.101,0.299c-0.067,0.067-0.119,0.134-0.152,0.2
				c-0.033,0.067-0.084,0.134-0.152,0.2l-0.606,0.898c-0.136,0.134-0.337,0.384-0.606,0.749c-0.271,0.367-0.557,0.749-0.858,1.147
				c-0.304,0.399-0.59,0.783-0.859,1.148c-0.27,0.366-0.44,0.616-0.505,0.749c-0.81,1.198-1.719,2.295-2.73,3.293
				c-1.753,1.996-3.808,3.959-6.164,5.888c-4.38,3.527-9.332,6.322-14.855,8.383c-1.349,0.531-2.712,1.013-4.093,1.447
				c-1.382,0.432-2.779,0.813-4.194,1.147c-1.349,0.333-2.746,0.631-4.194,0.898c-1.449,0.265-2.879,0.465-4.295,0.599
				c-0.337,0.065-0.707,0.115-1.111,0.149c-0.404,0.033-0.775,0.083-1.111,0.15h-0.505h-0.606c-0.202,0.065-0.573,0.1-1.112,0.1
				c-0.742,0.066-1.5,0.1-2.274,0.1c-0.775,0-1.566-0.067-2.375-0.2c-1.55-0.134-3.132-0.333-4.749-0.599
				c-0.809-0.2-1.602-0.417-2.375-0.649c-0.775-0.234-1.566-0.516-2.375-0.848c-0.742-0.333-1.5-0.666-2.274-0.998
				c-0.775-0.333-1.533-0.733-2.273-1.198c-0.742-0.466-1.45-0.948-2.123-1.447c-0.674-0.499-1.313-1.048-1.92-1.646
				c-0.674-0.532-1.298-1.098-1.87-1.696c-0.573-0.599-1.129-1.263-1.667-1.996c-0.54-0.665-1.045-1.331-1.516-1.996
				c-0.472-0.665-0.91-1.363-1.313-2.096c-0.809-1.463-1.5-2.96-2.072-4.491C68.142,190.337,67.653,188.807,67.25,187.276z"/>
		</g>
		<g>
			<path fill="#2B3F7B" d="M184.791,202.558c0.202-0.664,0.405-1.33,0.606-1.996c0.202-0.665,0.438-1.33,0.708-1.996l0.606-1.796
				l0.606-1.797c0.202-0.598,0.42-1.18,0.657-1.746c0.235-0.564,0.455-1.148,0.657-1.747c0.269-0.599,0.521-1.197,0.758-1.796
				c0.235-0.599,0.488-1.23,0.758-1.896c0.336-0.599,0.639-1.198,0.909-1.797c0.269-0.598,0.571-1.197,0.91-1.796
				c0.336-0.599,0.69-1.213,1.061-1.847c0.369-0.631,0.758-1.248,1.162-1.846c0.269-0.332,0.505-0.649,0.707-0.948
				c0.203-0.3,0.438-0.615,0.708-0.948c0.134-0.133,0.286-0.299,0.455-0.499c0.167-0.2,0.319-0.365,0.455-0.499l0.202-0.2
				l0.202-0.299l0.303-0.2l0.202-0.2c0.268-0.265,0.539-0.515,0.809-0.749c0.269-0.232,0.571-0.482,0.909-0.749
				c0.337-0.265,0.673-0.514,1.011-0.748c0.336-0.233,0.672-0.45,1.011-0.649c1.347-0.931,2.829-1.697,4.446-2.295
				c0.404-0.133,0.809-0.25,1.213-0.349c0.404-0.1,0.841-0.215,1.313-0.35c0.809-0.2,1.683-0.299,2.627-0.299
				c1.886-0.2,3.739,0,5.558,0.599c0.471,0.134,0.943,0.3,1.415,0.499c0.471,0.2,0.909,0.434,1.314,0.699
				c0.47,0.267,0.925,0.549,1.364,0.849c0.438,0.299,0.825,0.648,1.163,1.048c0.336,0.399,0.672,0.815,1.011,1.247
				c0.336,0.434,0.639,0.916,0.909,1.447c0.47,0.866,0.774,1.864,0.91,2.994c0.202,1.065,0.202,2.096,0,3.094
				c-0.068,0.466-0.169,0.916-0.303,1.347c-0.136,0.434-0.271,0.849-0.405,1.248c-0.202,0.399-0.404,0.783-0.605,1.147
				c-0.203,0.367-0.405,0.716-0.606,1.048c-0.203,0.334-0.422,0.648-0.657,0.948c-0.237,0.3-0.489,0.616-0.758,0.948
				c-0.472,0.533-0.978,1.032-1.516,1.497c-0.136,0.2-0.405,0.434-0.809,0.699l-0.202,0.199v0.1h-0.101v0.1
				c-0.27,0.134-0.439,0.266-0.505,0.399l-1.819,1.198c-0.337,0.199-0.641,0.383-0.909,0.549c-0.27,0.167-0.573,0.316-0.91,0.449
				c-1.146,0.533-2.324,1.032-3.537,1.497c-0.338,0.134-0.641,0.25-0.909,0.349c-0.27,0.1-0.541,0.217-0.809,0.35
				c-0.338,0.134-0.641,0.25-0.91,0.349c-0.27,0.1-0.573,0.217-0.909,0.35c-1.011,0.399-2.021,0.783-3.032,1.147
				c-1.011,0.367-2.056,0.749-3.133,1.148c-0.135,0.466-0.252,0.916-0.354,1.347c-0.101,0.434-0.219,0.882-0.354,1.348
				c-0.338,1.132-0.641,2.262-0.91,3.393c-0.27,1.132-0.573,2.262-0.91,3.393c-0.606,2.33-1.196,4.641-1.769,6.936
				c-0.573,2.295-1.162,4.608-1.768,6.936c-0.606,2.33-1.23,4.658-1.87,6.986c-0.641,2.33-1.331,4.658-2.072,6.986
				c-0.742,2.33-1.465,4.675-2.172,7.036c-0.708,2.362-1.533,4.708-2.476,7.037c-0.404,1.197-0.843,2.379-1.314,3.543
				c-0.472,1.164-0.978,2.345-1.516,3.543c-1.011,2.329-2.19,4.657-3.537,6.985c-0.742,1.198-1.5,2.38-2.274,3.543
				c-0.775,1.165-1.702,2.313-2.779,3.443c-0.541,0.532-1.079,1.081-1.617,1.647c-0.54,0.563-1.179,1.112-1.92,1.646
				c-0.606,0.532-1.349,0.998-2.224,1.397l-1.212,0.599c-0.068,0.065-0.119,0.101-0.152,0.101c-0.034,0-0.085,0.032-0.151,0.1
				h-0.101h-0.101l-0.101,0.099c-0.136,0-0.237,0.033-0.304,0.101h-0.303c-1.551,0.531-3.167,0.832-4.851,0.897
				c-0.809,0.066-1.652,0.066-2.526,0c-0.876-0.065-1.718-0.198-2.527-0.398c-1.887-0.467-3.504-1.164-4.851-2.097
				c-0.808-0.466-1.482-1.031-2.021-1.695c-0.338-0.334-0.641-0.667-0.909-0.998c-0.27-0.334-0.505-0.667-0.708-0.998
				c-0.944-1.53-1.516-3.095-1.718-4.69c-0.203-1.53-0.134-3.027,0.202-4.491c0.269-1.33,0.741-2.661,1.415-3.992
				c0.74-1.33,1.481-2.461,2.223-3.394c0.336-0.398,0.758-0.632,1.263-0.699c0.505-0.064,0.925,0.067,1.263,0.4
				c0.809,0.598,0.976,1.331,0.505,2.195v0.1c-0.54,0.933-0.91,1.931-1.112,2.994c-0.27,0.865-0.404,1.831-0.404,2.895
				c0,1.065,0.203,1.931,0.606,2.595c0.269,0.665,0.708,1.297,1.314,1.896c0.404,0.266,0.708,0.434,0.91,0.499
				c0.269,0.133,0.606,0.266,1.011,0.398c0.606,0.135,1.279,0.135,2.021,0c0.336-0.065,0.69-0.165,1.061-0.3
				c0.37-0.132,0.723-0.265,1.061-0.398c0.337-0.199,0.69-0.399,1.062-0.6c0.37-0.199,0.723-0.432,1.061-0.698l0.101-0.1l0.101-0.1
				h0.101v-0.101h0.101c0.066-0.064,0.134-0.114,0.202-0.148c0.066-0.033,0.134-0.083,0.202-0.15
				c0.134-0.133,0.253-0.249,0.354-0.349c0.101-0.101,0.218-0.216,0.354-0.35c0.269-0.266,0.539-0.549,0.809-0.849
				c0.269-0.299,0.538-0.614,0.808-0.948c0.471-0.664,0.976-1.463,1.516-2.396c0.268-0.464,0.521-0.913,0.758-1.347
				c0.235-0.432,0.455-0.881,0.657-1.347c0.471-0.932,0.909-1.912,1.314-2.944c0.404-1.031,0.808-2.079,1.212-3.145
				c0.404-1.063,0.791-2.111,1.162-3.143c0.37-1.031,0.723-2.112,1.062-3.244c0.672-2.196,1.313-4.407,1.92-6.637
				c0.606-2.229,1.213-4.507,1.819-6.836c0.539-2.328,1.094-4.641,1.667-6.936c0.572-2.296,1.162-4.606,1.769-6.937
				c0.47-1.796,0.925-3.608,1.364-5.439c0.438-1.829,0.925-3.643,1.465-5.439c-0.472,0.334-1.045,0.766-1.718,1.297
				c-0.472,0.333-0.927,0.683-1.364,1.048c-0.439,0.367-0.859,0.749-1.263,1.148l-1.213,1.197c-0.202,0.267-0.404,0.499-0.606,0.699
				c-0.202,0.2-0.371,0.399-0.505,0.599c-0.404,0.399-0.758,0.815-1.061,1.247c-0.303,0.434-0.624,0.883-0.96,1.348
				c-0.404,0.533-0.674,0.965-0.809,1.297c-0.202,0.266-0.439,0.666-0.708,1.198c-0.472,0.865-0.808,1.731-1.01,2.594
				c-0.136,0.399-0.237,0.783-0.303,1.148c-0.068,0.367-0.136,0.749-0.202,1.148v1.098c0,0.134,0.016,0.299,0.051,0.499
				c0.033,0.199,0.05,0.367,0.05,0.499c0.066,0.199,0.101,0.383,0.101,0.549c0,0.167,0.033,0.349,0.101,0.549
				c0.066,0.067,0.101,0.134,0.101,0.2c0,0.067,0.034,0.167,0.102,0.299c0,0.135,0.033,0.234,0.101,0.3v0.1v0.199
				c0.269,0.933,0.336,1.831,0.202,2.695c-0.136,0.865-0.422,1.681-0.859,2.445c-0.439,0.766-1.028,1.432-1.769,1.996
				c-0.742,0.566-1.551,0.982-2.425,1.248c-1.887,0.534-3.655,0.316-5.306-0.649c-1.652-0.963-2.746-2.378-3.284-4.241
				c-0.136-0.399-0.202-0.764-0.202-1.098v-0.099v-0.1v-0.1l-0.102-0.1v-0.199v-0.599c-0.067-0.265-0.101-0.699-0.101-1.298
				c0-0.399,0-0.813,0-1.247c0-0.432,0.034-0.848,0.101-1.248c0.067-0.464,0.134-0.898,0.203-1.297
				c0.066-0.399,0.167-0.798,0.303-1.198c0.134-0.464,0.253-0.898,0.354-1.297c0.101-0.399,0.218-0.798,0.354-1.198
				c0.336-0.798,0.69-1.547,1.061-2.246c0.37-0.698,0.758-1.413,1.162-2.146c0.471-0.664,0.96-1.28,1.465-1.846
				c0.505-0.564,1.026-1.113,1.566-1.647c0.269-0.265,0.539-0.514,0.809-0.748c0.269-0.233,0.539-0.449,0.809-0.649
				c0.672-0.532,1.246-0.964,1.718-1.297c0.539-0.399,1.112-0.781,1.718-1.148c0.606-0.364,1.178-0.714,1.718-1.048l1.819-0.898
				c0.336-0.132,0.622-0.282,0.859-0.449c0.235-0.165,0.521-0.315,0.859-0.449c0.606-0.265,1.195-0.532,1.769-0.799
				c0.571-0.265,1.162-0.532,1.769-0.798c0.606-0.265,1.195-0.515,1.768-0.749c0.572-0.232,1.128-0.482,1.667-0.749L184.791,202.558
				z M216.018,250.263c0.202-2.062,0.303-4.092,0.303-6.088c0.066-0.998,0.084-1.945,0.051-2.844
				c-0.035-0.899-0.119-1.747-0.253-2.545c-0.067-0.399-0.118-0.799-0.151-1.198c-0.035-0.399-0.119-0.764-0.253-1.098
				c-0.135-0.399-0.237-0.731-0.303-0.998c-0.068-0.132-0.136-0.282-0.202-0.449c-0.068-0.166-0.136-0.315-0.202-0.449
				c-0.068-0.2-0.237-0.499-0.505-0.898c-0.068-0.133-0.237-0.399-0.505-0.799c-0.136-0.132-0.253-0.265-0.354-0.399
				c-0.101-0.133-0.22-0.265-0.354-0.399c-0.135-0.132-0.27-0.25-0.404-0.349c-0.136-0.1-0.27-0.215-0.404-0.35
				c-1.281-1.063-2.797-1.929-4.547-2.594c-0.472-0.2-0.945-0.382-1.416-0.549c-0.472-0.165-0.977-0.349-1.516-0.549l-3.032-0.898
				c-0.742,0.199-1.415,0.117-2.021-0.25c-0.606-0.365-0.977-0.914-1.111-1.647c-0.202-0.664-0.119-1.297,0.252-1.896
				c0.369-0.599,0.892-0.998,1.566-1.197h0.101l1.212-0.3c0.202,0,0.505-0.065,0.91-0.199c0.539-0.133,1.044-0.25,1.516-0.35
				c0.47-0.1,0.942-0.215,1.415-0.35c0.673-0.132,1.313-0.299,1.92-0.499c0.606-0.2,1.213-0.399,1.819-0.599
				c1.213-0.399,2.391-0.831,3.537-1.297c1.145-0.465,2.256-0.964,3.335-1.497c1.953-1.063,3.805-2.361,5.558-3.892
				c1.549-1.397,2.997-3.094,4.345-5.09c0.672-0.931,1.296-1.896,1.87-2.894c0.571-0.998,1.127-2.062,1.667-3.194
				c0.538-1.13,1.061-2.278,1.566-3.443c0.505-1.163,1.026-2.378,1.566-3.643c0.538-1.197,1.094-2.411,1.667-3.643
				c0.572-1.23,1.229-2.511,1.971-3.842c0.336-0.599,0.707-1.213,1.111-1.847c0.404-0.631,0.841-1.248,1.314-1.846
				c0.268-0.399,0.505-0.731,0.708-0.998c0.268-0.399,0.505-0.699,0.707-0.898c0.404-0.599,0.909-1.197,1.516-1.796
				c0.539-0.599,1.095-1.18,1.667-1.747c0.572-0.564,1.163-1.113,1.769-1.646c1.213-0.931,2.593-1.83,4.144-2.695
				c0.741-0.399,1.498-0.731,2.273-0.998c0.773-0.265,1.531-0.499,2.273-0.698c1.349-0.333,2.864-0.565,4.548-0.699h1.214h0.505
				h0.606h2.223c0.74,0.134,1.48,0.25,2.223,0.349c0.741,0.1,1.481,0.25,2.224,0.449c1.684,0.466,3.166,1.098,4.447,1.896
				c0.202,0.134,0.387,0.25,0.556,0.349c0.168,0.1,0.354,0.217,0.556,0.35l0.909,0.898c0.606,0.599,1.178,1.332,1.719,2.196
				l0.605,1.198c0.135,0.2,0.219,0.399,0.253,0.599c0.033,0.2,0.116,0.399,0.253,0.599c0.269,0.866,0.471,1.731,0.605,2.595
				c0.135,0.933,0.186,1.813,0.152,2.645c-0.035,0.833-0.118,1.681-0.253,2.545c-0.136,0.866-0.32,1.714-0.556,2.545
				c-0.236,0.833-0.522,1.614-0.859,2.345c-0.674,1.731-1.414,3.228-2.223,4.491c-1.955,2.928-4.313,5.423-7.074,7.485
				c-0.404,0.267-0.793,0.516-1.162,0.749c-0.371,0.234-0.758,0.449-1.162,0.649c-0.742,0.399-1.551,0.798-2.426,1.198
				c-0.404,0.134-0.809,0.284-1.213,0.449c-0.403,0.167-0.844,0.317-1.313,0.449c-0.337,0.067-0.775,0.167-1.314,0.299
				c-0.337,0-0.572,0.035-0.706,0.1h-0.405h-0.101l-0.202,0.1c-1.818,0.134-3.436-0.382-4.851-1.547
				c-1.415-1.163-2.19-2.645-2.324-4.44c-0.136-1.663,0.286-3.144,1.263-4.441c0.977-1.297,2.24-2.146,3.789-2.545h0.103h0.102
				c0.064-0.066,0.134-0.1,0.201-0.1l0.304-0.1l0.707-0.1c0.269-0.132,0.74-0.265,1.415-0.399c0.201-0.132,0.42-0.215,0.657-0.25
				c0.234-0.033,0.487-0.115,0.758-0.25c0.065,0,0.302-0.065,0.706-0.199c0.269-0.133,0.506-0.232,0.708-0.3
				c0.942-0.399,1.87-0.864,2.779-1.397c0.91-0.532,1.802-1.163,2.679-1.896c0.403-0.333,0.808-0.699,1.212-1.098
				s0.809-0.798,1.213-1.198c0.673-0.863,1.278-1.762,1.818-2.694c0.539-1.13,0.91-2.128,1.112-2.994
				c0.202-1.063,0.167-2.028-0.102-2.894c-0.201-0.931-0.707-1.796-1.516-2.595c-0.877-0.731-1.854-1.298-2.931-1.697
				c-0.54-0.265-1.129-0.449-1.769-0.549c-0.642-0.1-1.298-0.215-1.971-0.35c-0.337,0-0.656-0.015-0.96-0.049
				c-0.303-0.033-0.624-0.05-0.959-0.05h-0.204h-0.101h-0.201h-0.404c-0.202,0-0.389,0.017-0.557,0.05
				c-0.168,0.034-0.319,0.049-0.454,0.049c-0.605,0.067-1.213,0.185-1.819,0.35c-0.606,0.167-1.179,0.383-1.718,0.648
				c-1.011,0.466-1.955,1.132-2.83,1.996c-0.404,0.466-0.758,0.933-1.061,1.397c-0.304,0.466-0.623,0.965-0.961,1.497
				c-0.539,1.132-0.943,2.263-1.212,3.393c-0.136,0.334-0.237,0.634-0.303,0.899c-0.068,0.267-0.136,0.565-0.202,0.898
				c-0.068,0.134-0.102,0.284-0.102,0.449c0,0.167-0.035,0.317-0.101,0.449c-0.136,0.533-0.202,0.866-0.202,0.998
				c-0.136,0.599-0.287,1.215-0.455,1.847c-0.169,0.633-0.321,1.282-0.455,1.946c-0.338,1.332-0.674,2.645-1.01,3.942
				c-0.338,1.297-0.775,2.612-1.313,3.942c-0.541,1.331-1.096,2.679-1.667,4.042c-0.573,1.364-1.23,2.712-1.971,4.042
				c-1.483,2.862-3.201,5.489-5.154,7.885c-0.54,0.666-1.096,1.297-1.667,1.896c-0.574,0.599-1.162,1.165-1.769,1.696
				c-0.606,0.534-1.23,1.065-1.87,1.597c-0.641,0.534-1.298,1.033-1.971,1.497c-0.338,0.267-0.691,0.499-1.061,0.699
				c-0.371,0.199-0.725,0.399-1.061,0.599c-0.541,0.267-0.91,0.466-1.112,0.599c-0.202,0.134-0.388,0.234-0.556,0.3
				c-0.169,0.066-0.354,0.167-0.556,0.299c-0.404,0.067-0.775,0.234-1.112,0.499c-0.202,0.067-0.404,0.134-0.605,0.2
				c-0.203,0.066-0.405,0.134-0.606,0.199c0.134,0.134,0.268,0.267,0.404,0.399c0.134,0.134,0.269,0.267,0.404,0.399
				c0.336,0.267,0.622,0.533,0.859,0.798c0.235,0.267,0.488,0.566,0.758,0.898c1.011,1.332,1.819,2.662,2.425,3.992
				c0.337,0.666,0.64,1.332,0.91,1.996c0.269,0.666,0.505,1.364,0.708,2.096c0.672,2.729,1.077,5.324,1.213,7.785
				c0.066,2.529,0.066,4.924,0,7.186c-0.136,2.329-0.338,4.525-0.606,6.587c-0.136,0.532-0.237,1.047-0.303,1.546
				c-0.068,0.499-0.136,0.982-0.202,1.447c-0.136,0.533-0.219,1.032-0.252,1.497c-0.035,0.466-0.119,0.898-0.253,1.298
				c-0.068,0.467-0.118,0.898-0.151,1.297c-0.035,0.399-0.051,0.799-0.051,1.198v0.998c0.067,0.134,0.101,0.267,0.101,0.399
				s0.033,0.266,0.101,0.398c0.134,0.6,0.336,1.033,0.606,1.298c0.336,0.334,0.943,0.633,1.819,0.897c0.809,0.2,1.683,0.3,2.628,0.3
				c0.808,0.067,1.717,0,2.728-0.199c0.943-0.133,1.853-0.382,2.729-0.748c0.875-0.365,1.751-0.815,2.627-1.348
				c1.617-0.998,3.233-2.262,4.851-3.793c1.481-1.463,2.863-3.093,4.144-4.891c0.671-0.863,1.295-1.762,1.87-2.693
				c0.57-0.932,1.127-1.862,1.667-2.795c0.607-0.998,1.077-1.961,1.414-2.894c0.269-0.465,0.506-0.931,0.709-1.397
				c0.065-0.133,0.116-0.265,0.15-0.399c0.033-0.132,0.084-0.265,0.151-0.399c0-0.065,0.016-0.115,0.052-0.15
				c0.033-0.032,0.05-0.115,0.05-0.25l0.102-0.1c0-0.133,0.033-0.2,0.101-0.2c0.135-0.531,0.438-0.914,0.91-1.147
				c0.47-0.233,0.976-0.25,1.516-0.05c0.538,0.134,0.925,0.434,1.162,0.898c0.235,0.466,0.252,0.965,0.05,1.497v0.2l-0.201,0.398
				l-0.203,0.4l-0.403,0.798c-0.136,0.268-0.253,0.517-0.354,0.749c-0.101,0.233-0.219,0.483-0.354,0.748
				c-0.271,0.533-0.522,1.048-0.758,1.547c-0.237,0.499-0.489,1.016-0.758,1.548l-0.91,1.497c-0.135,0.266-0.27,0.516-0.403,0.748
				c-0.136,0.234-0.27,0.483-0.404,0.749c-0.338,0.533-0.641,1.032-0.909,1.497c-0.271,0.466-0.573,0.932-0.91,1.396
				c-1.146,1.863-2.526,3.76-4.143,5.688c-1.617,1.863-3.335,3.527-5.154,4.99c-0.27,0.199-0.522,0.399-0.758,0.599
				c-0.237,0.199-0.49,0.365-0.758,0.499c-0.27,0.199-0.54,0.382-0.809,0.55c-0.27,0.164-0.54,0.314-0.808,0.448
				c-1.281,0.664-2.46,1.23-3.537,1.696c-1.213,0.399-2.526,0.699-3.941,0.898c-0.135,0.065-0.288,0.1-0.455,0.1
				c-0.169,0-0.354,0.033-0.556,0.101h-0.203h-0.202h-0.101h-0.505h-2.021c-0.404-0.067-0.793-0.117-1.162-0.15
				c-0.371-0.034-0.758-0.084-1.163-0.15c-0.202-0.065-0.573-0.166-1.111-0.299c-0.202-0.067-0.404-0.134-0.606-0.199
				c-0.202-0.066-0.404-0.134-0.606-0.199c-0.54-0.268-0.909-0.467-1.112-0.6c-0.202-0.134-0.404-0.249-0.606-0.349
				c-0.202-0.101-0.404-0.218-0.605-0.35c-0.338-0.267-0.675-0.549-1.011-0.849c-0.338-0.299-0.675-0.615-1.011-0.948
				c-0.271-0.333-0.54-0.683-0.809-1.048c-0.27-0.364-0.505-0.714-0.707-1.047c-0.203-0.333-0.405-0.682-0.606-1.048
				c-0.203-0.366-0.371-0.715-0.505-1.049c-0.338-0.731-0.606-1.43-0.809-2.096c-0.202-0.665-0.404-1.362-0.606-2.096
				c-0.136-0.664-0.271-1.313-0.405-1.946c-0.136-0.631-0.237-1.247-0.303-1.847c-0.135-0.663-0.219-1.297-0.252-1.896
				c-0.035-0.6-0.085-1.197-0.151-1.796c-0.068-1.131-0.085-2.262-0.051-3.394C215.899,252.426,215.949,251.328,216.018,250.263z
				 M205.709,187.588c-0.338,0.599-0.742,1.464-1.213,2.595c-0.337,0.666-0.624,1.365-0.858,2.096
				c-0.237,0.732-0.49,1.464-0.758,2.195c0.404-0.2,0.791-0.399,1.162-0.599c0.37-0.2,0.758-0.399,1.162-0.599
				c0.539-0.332,1.077-0.599,1.617-0.798l1.516-0.898c0.539-0.332,1.044-0.631,1.516-0.898c0.47-0.265,0.942-0.564,1.415-0.898
				c0.202-0.133,0.404-0.3,0.606-0.499c0.202-0.2,0.404-0.365,0.606-0.499c0.202-0.133,0.404-0.3,0.606-0.499
				c0.202-0.2,0.37-0.365,0.505-0.499l0.202-0.2v-0.1l0.101-0.099l0.102-0.1c0.066-0.133,0.134-0.232,0.202-0.3
				c0.066-0.065,0.134-0.165,0.202-0.299c0.404-0.531,0.673-0.931,0.809-1.198c0.202-0.399,0.37-0.798,0.505-1.197
				c0.134-0.2,0.203-0.399,0.203-0.599c0-0.2,0.033-0.365,0.101-0.499v-0.898c-0.136-0.265-0.237-0.465-0.304-0.599l-0.303-0.299
				c-0.068,0-0.119-0.016-0.151-0.05c-0.035-0.033-0.085-0.05-0.152-0.05c-0.404-0.132-0.808-0.2-1.212-0.2
				c-0.27,0.067-0.54,0.117-0.809,0.15c-0.27,0.035-0.573,0.117-0.909,0.25l-0.91,0.299c-0.136,0.134-0.287,0.217-0.455,0.25
				c-0.168,0.034-0.32,0.117-0.454,0.25c-1.349,0.866-2.494,1.963-3.436,3.293l-0.101,0.1v0.1h-0.101v0.1h-0.101v0.099
				c-0.068,0.135-0.119,0.217-0.152,0.25c-0.034,0.035-0.085,0.117-0.151,0.25C206.18,186.69,205.978,187.057,205.709,187.588z"/>
		</g>
	</g>
</g>
</svg>
